<?xml version="1.0" encoding="UTF-8"?>
<svg xmlns="http://www.w3.org/2000/svg" width="1600" height="796" viewBox="0 0 1600 796">
<rect width="100%" height="100%" fill="#0f172a"/>
<text x="800" y="44" text-anchor="middle" fill="#f8fafc" font-size="34" font-family="Arial, sans-serif">Events Backend Round-Trip Allocations</text>
<text x="800" y="80" text-anchor="middle" fill="#94a3b8" font-size="22" font-family="Arial, sans-serif">Snapshot from sync plus enabled distributed driver fixtures; lower is better (allocs/op)</text>
<text x="240" y="150" text-anchor="end" fill="#e2e8f0" font-size="28" font-family="Arial, sans-serif">Sync</text>
<rect x="260" y="120" width="1170" height="44" rx="8" fill="#1e293b"/>
<rect x="260" y="120" width="8" height="44" rx="8" fill="#546E7A"/>
<text x="284" y="150" fill="#f8fafc" font-size="24" font-family="Arial, sans-serif">9 allocs/op</text>
<text x="240" y="246" text-anchor="end" fill="#e2e8f0" font-size="28" font-family="Arial, sans-serif">NATS</text>
<rect x="260" y="216" width="1170" height="44" rx="8" fill="#1e293b"/>
<rect x="260" y="216" width="17" height="44" rx="8" fill="#27AAE1"/>
<text x="293" y="246" fill="#f8fafc" font-size="24" font-family="Arial, sans-serif">18 allocs/op</text>
<text x="240" y="342" text-anchor="end" fill="#e2e8f0" font-size="28" font-family="Arial, sans-serif">Redis</text>
<rect x="260" y="312" width="1170" height="44" rx="8" fill="#1e293b"/>
<rect x="260" y="312" width="29" height="44" rx="8" fill="#DC382D"/>
<text x="305" y="342" fill="#f8fafc" font-size="24" font-family="Arial, sans-serif">31 allocs/op</text>
<text x="240" y="438" text-anchor="end" fill="#e2e8f0" font-size="28" font-family="Arial, sans-serif">NATS JetStream</text>
<rect x="260" y="408" width="1170" height="44" rx="8" fill="#1e293b"/>
<rect x="260" y="408" width="55" height="44" rx="8" fill="#1E88E5"/>
<text x="331" y="438" fill="#f8fafc" font-size="24" font-family="Arial, sans-serif">60 allocs/op</text>
<text x="240" y="534" text-anchor="end" fill="#e2e8f0" font-size="28" font-family="Arial, sans-serif">Kafka</text>
<rect x="260" y="504" width="1170" height="44" rx="8" fill="#1e293b"/>
<rect x="260" y="504" width="62" height="44" rx="8" fill="#231F20"/>
<text x="338" y="534" fill="#f8fafc" font-size="24" font-family="Arial, sans-serif">67 allocs/op</text>
<text x="240" y="630" text-anchor="end" fill="#e2e8f0" font-size="28" font-family="Arial, sans-serif">Google Pub/Sub</text>
<rect x="260" y="600" width="1170" height="44" rx="8" fill="#1e293b"/>
<rect x="260" y="600" width="340" height="44" rx="8" fill="#4285F4"/>
<text x="616" y="630" fill="#f8fafc" font-size="24" font-family="Arial, sans-serif">369 allocs/op</text>
<text x="240" y="726" text-anchor="end" fill="#e2e8f0" font-size="28" font-family="Arial, sans-serif">SNS</text>
<rect x="260" y="696" width="1170" height="44" rx="8" fill="#1e293b"/>
<rect x="260" y="696" width="1170" height="44" rx="8" fill="#FF9900"/>
<text x="1446" y="726" fill="#f8fafc" font-size="24" font-family="Arial, sans-serif">1271 allocs/op</text>
</svg>
